<svg xmlns="http://www.w3.org/2000/svg" xmlns:xlink="http://www.w3.org/1999/xlink" contentStyleType="text/css" data-diagram-type="CLASS" height="573px" preserveAspectRatio="none" style="width:848px;height:573px;background:#FFFFFF;" version="1.1" viewBox="0 0 848 573" width="848px" zoomAndPan="magnify"><defs/><g><!--cluster User Service--><g class="cluster" data-qualified-name="User Service" data-source-line="4" id="ent0002"><rect fill="#FFFFFF" height="459.53" rx="2.5" ry="2.5" style="stroke:#000000;stroke-width:1;" width="236" x="12" y="12"/><text fill="#000000" font-family="Verdana" font-size="14" font-weight="bold" lengthAdjust="spacing" textLength="99.1758" x="80.4121" y="26.9951">User Service</text></g><!--cluster Inventory Service--><g class="cluster" data-qualified-name="Inventory Service" data-source-line="24" id="ent0008"><rect fill="#FFFFFF" height="459.53" rx="2.5" ry="2.5" style="stroke:#000000;stroke-width:1;" width="256" x="272" y="12"/><text fill="#000000" font-family="Verdana" font-size="14" font-weight="bold" lengthAdjust="spacing" textLength="139.1797" x="330.4102" y="26.9951">Inventory Service</text></g><!--cluster Booking Service--><g class="cluster" data-qualified-name="Booking Service" data-source-line="44" id="ent0014"><rect fill="#FFFFFF" height="467.67" rx="2.5" ry="2.5" style="stroke:#000000;stroke-width:1;" width="290" x="552" y="12"/><text fill="#000000" font-family="Verdana" font-size="14" font-weight="bold" lengthAdjust="spacing" textLength="127.0801" x="633.46" y="26.9951">Booking Service</text></g><!--class UserController--><g class="entity" data-qualified-name="User Service.UserController" data-source-line="5" id="ent0003"><rect fill="#FFFFFF" height="76.5938" rx="2.5" ry="2.5" style="stroke:#000000;stroke-width:1;" width="203.4844" x="28.26" y="47"/><ellipse cx="75.7107" cy="61" fill="#FFFFFF" rx="9" ry="9" style="stroke:#000000;stroke-width:1;"/><path d="M78.6794,66.6406 Q78.1013,66.9375 77.4607,67.0781 Q76.8201,67.2344 76.1169,67.2344 Q73.6169,67.2344 72.2888,65.5938 Q70.9763,63.9375 70.9763,60.8125 Q70.9763,57.6875 72.2888,56.0313 Q73.6169,54.375 76.1169,54.375 Q76.8201,54.375 77.4607,54.5313 Q78.1169,54.6875 78.6794,54.9844 L78.6794,57.7031 Q78.0544,57.125 77.4607,56.8594 Q76.8669,56.5781 76.2419,56.5781 Q74.8982,56.5781 74.2107,57.6563 Q73.5232,58.7188 73.5232,60.8125 Q73.5232,62.9063 74.2107,63.9844 Q74.8982,65.0469 76.2419,65.0469 Q76.8669,65.0469 77.4607,64.7813 Q78.0544,64.5 78.6794,63.9219 L78.6794,66.6406 Z " fill="#000000"/><text fill="#000000" font-family="Verdana" font-size="14" lengthAdjust="spacing" textLength="101.083" x="93.2107" y="65.8467">UserController</text><line style="stroke:#000000;stroke-width:1;" x1="29.26" x2="230.7444" y1="75" y2="75"/><line style="stroke:#000000;stroke-width:1;" x1="29.26" x2="230.7444" y1="83" y2="83"/><g data-visibility-modifier="PUBLIC_METHOD"><ellipse cx="39.26" cy="96.6484" fill="#FFFFFF" rx="3" ry="3" style="stroke:#000000;stroke-width:1;"/></g><text fill="#000000" font-family="Verdana" font-size="14" lengthAdjust="spacing" textLength="160.5693" x="46.26" y="99.9951">createUser(User): User</text><g data-visibility-modifier="PUBLIC_METHOD"><ellipse cx="39.26" cy="112.9453" fill="#FFFFFF" rx="3" ry="3" style="stroke:#000000;stroke-width:1;"/></g><text fill="#000000" font-family="Verdana" font-size="14" lengthAdjust="spacing" textLength="179.4844" x="46.26" y="116.292">getAllUsers(): List&lt;User&gt;</text></g><!--class UserService--><g class="entity" data-qualified-name="User Service.UserService" data-source-line="9" id="ent0004"><rect fill="#FFFFFF" height="76.5938" rx="2.5" ry="2.5" style="stroke:#000000;stroke-width:1;" width="203.4844" x="28.26" y="184.6"/><ellipse cx="84.4265" cy="198.6" fill="#FFFFFF" rx="9" ry="9" style="stroke:#000000;stroke-width:1;"/><path d="M87.3953,204.2406 Q86.8171,204.5375 86.1765,204.6781 Q85.5359,204.8344 84.8328,204.8344 Q82.3328,204.8344 81.0046,203.1938 Q79.6921,201.5375 79.6921,198.4125 Q79.6921,195.2875 81.0046,193.6313 Q82.3328,191.975 84.8328,191.975 Q85.5359,191.975 86.1765,192.1313 Q86.8328,192.2875 87.3953,192.5844 L87.3953,195.3031 Q86.7703,194.725 86.1765,194.4594 Q85.5828,194.1781 84.9578,194.1781 Q83.614,194.1781 82.9265,195.2563 Q82.239,196.3188 82.239,198.4125 Q82.239,200.5063 82.9265,201.5844 Q83.614,202.6469 84.9578,202.6469 Q85.5828,202.6469 86.1765,202.3813 Q86.7703,202.1 87.3953,201.5219 L87.3953,204.2406 Z " fill="#000000"/><text fill="#000000" font-family="Verdana" font-size="14" lengthAdjust="spacing" textLength="83.6514" x="101.9265" y="203.4467">UserService</text><line style="stroke:#000000;stroke-width:1;" x1="29.26" x2="230.7444" y1="212.6" y2="212.6"/><line style="stroke:#000000;stroke-width:1;" x1="29.26" x2="230.7444" y1="220.6" y2="220.6"/><g data-visibility-modifier="PUBLIC_METHOD"><ellipse cx="39.26" cy="234.2484" fill="#FFFFFF" rx="3" ry="3" style="stroke:#000000;stroke-width:1;"/></g><text fill="#000000" font-family="Verdana" font-size="14" lengthAdjust="spacing" textLength="148.5928" x="46.26" y="237.5951">saveUser(User): User</text><g data-visibility-modifier="PUBLIC_METHOD"><ellipse cx="39.26" cy="250.5453" fill="#FFFFFF" rx="3" ry="3" style="stroke:#000000;stroke-width:1;"/></g><text fill="#000000" font-family="Verdana" font-size="14" lengthAdjust="spacing" textLength="179.4844" x="46.26" y="253.892">getAllUsers(): List&lt;User&gt;</text></g><!--class User--><g class="entity" data-qualified-name="User Service.User" data-source-line="13" id="ent0005"><rect fill="#FFFFFF" height="109.1875" rx="2.5" ry="2.5" style="stroke:#000000;stroke-width:1;" width="138.8916" x="77.55" y="346.34"/><ellipse cx="127.2907" cy="360.34" fill="#FFFFFF" rx="9" ry="9" style="stroke:#000000;stroke-width:1;"/><path d="M130.2595,365.9806 Q129.6813,366.2775 129.0407,366.4181 Q128.4001,366.5744 127.697,366.5744 Q125.197,366.5744 123.8688,364.9338 Q122.5563,363.2775 122.5563,360.1525 Q122.5563,357.0275 123.8688,355.3713 Q125.197,353.715 127.697,353.715 Q128.4001,353.715 129.0407,353.8713 Q129.697,354.0275 130.2595,354.3244 L130.2595,357.0431 Q129.6345,356.465 129.0407,356.1994 Q128.447,355.9181 127.822,355.9181 Q126.4782,355.9181 125.7907,356.9963 Q125.1032,358.0588 125.1032,360.1525 Q125.1032,362.2463 125.7907,363.3244 Q126.4782,364.3869 127.822,364.3869 Q128.447,364.3869 129.0407,364.1213 Q129.6345,363.84 130.2595,363.2619 L130.2595,365.9806 Z " fill="#000000"/><text fill="#000000" font-family="Verdana" font-size="14" lengthAdjust="spacing" textLength="31.9102" x="144.7907" y="365.1867">User</text><line style="stroke:#000000;stroke-width:1;" x1="78.55" x2="215.4416" y1="374.34" y2="374.34"/><g data-visibility-modifier="PRIVATE_FIELD"><rect fill="none" height="6" style="stroke:#000000;stroke-width:1;" width="6" x="85.55" y="384.9884"/></g><text fill="#000000" font-family="Verdana" font-size="14" lengthAdjust="spacing" textLength="51.3516" x="95.55" y="391.3351">Long id</text><g data-visibility-modifier="PRIVATE_FIELD"><rect fill="none" height="6" style="stroke:#000000;stroke-width:1;" width="6" x="85.55" y="401.2853"/></g><text fill="#000000" font-family="Verdana" font-size="14" lengthAdjust="spacing" textLength="114.8916" x="95.55" y="407.632">String firstName</text><g data-visibility-modifier="PRIVATE_FIELD"><rect fill="none" height="6" style="stroke:#000000;stroke-width:1;" width="6" x="85.55" y="417.5822"/></g><text fill="#000000" font-family="Verdana" font-size="14" lengthAdjust="spacing" textLength="112.7861" x="95.55" y="423.9289">String lastName</text><g data-visibility-modifier="PRIVATE_FIELD"><rect fill="none" height="6" style="stroke:#000000;stroke-width:1;" width="6" x="85.55" y="433.8791"/></g><text fill="#000000" font-family="Verdana" font-size="14" lengthAdjust="spacing" textLength="84.8408" x="95.55" y="440.2257">String email</text><line style="stroke:#000000;stroke-width:1;" x1="78.55" x2="215.4416" y1="447.5275" y2="447.5275"/></g><!--class SpaceController--><g class="entity" data-qualified-name="Inventory Service.SpaceController" data-source-line="25" id="ent0009"><rect fill="#FFFFFF" height="76.5938" rx="2.5" ry="2.5" style="stroke:#000000;stroke-width:1;" width="224.9902" x="287.5" y="47"/><ellipse cx="340.3271" cy="61" fill="#FFFFFF" rx="9" ry="9" style="stroke:#000000;stroke-width:1;"/><path d="M343.2959,66.6406 Q342.7178,66.9375 342.0771,67.0781 Q341.4365,67.2344 340.7334,67.2344 Q338.2334,67.2344 336.9053,65.5938 Q335.5928,63.9375 335.5928,60.8125 Q335.5928,57.6875 336.9053,56.0313 Q338.2334,54.375 340.7334,54.375 Q341.4365,54.375 342.0771,54.5313 Q342.7334,54.6875 343.2959,54.9844 L343.2959,57.7031 Q342.6709,57.125 342.0771,56.8594 Q341.4834,56.5781 340.8584,56.5781 Q339.5146,56.5781 338.8271,57.6563 Q338.1396,58.7188 338.1396,60.8125 Q338.1396,62.9063 338.8271,63.9844 Q339.5146,65.0469 340.8584,65.0469 Q341.4834,65.0469 342.0771,64.7813 Q342.6709,64.5 343.2959,63.9219 L343.2959,66.6406 Z " fill="#000000"/><text fill="#000000" font-family="Verdana" font-size="14" lengthAdjust="spacing" textLength="111.8359" x="357.8271" y="65.8467">SpaceController</text><line style="stroke:#000000;stroke-width:1;" x1="288.5" x2="511.4902" y1="75" y2="75"/><line style="stroke:#000000;stroke-width:1;" x1="288.5" x2="511.4902" y1="83" y2="83"/><g data-visibility-modifier="PUBLIC_METHOD"><ellipse cx="298.5" cy="96.6484" fill="#FFFFFF" rx="3" ry="3" style="stroke:#000000;stroke-width:1;"/></g><text fill="#000000" font-family="Verdana" font-size="14" lengthAdjust="spacing" textLength="192.8281" x="305.5" y="99.9951">createSpace(Space): Space</text><g data-visibility-modifier="PUBLIC_METHOD"><ellipse cx="298.5" cy="112.9453" fill="#FFFFFF" rx="3" ry="3" style="stroke:#000000;stroke-width:1;"/></g><text fill="#000000" font-family="Verdana" font-size="14" lengthAdjust="spacing" textLength="200.9902" x="305.5" y="116.292">getAllSpaces(): List&lt;Space&gt;</text></g><!--class SpaceService--><g class="entity" data-qualified-name="Inventory Service.SpaceService" data-source-line="29" id="ent0010"><rect fill="#FFFFFF" height="76.5938" rx="2.5" ry="2.5" style="stroke:#000000;stroke-width:1;" width="224.9902" x="287.5" y="184.6"/><ellipse cx="349.043" cy="198.6" fill="#FFFFFF" rx="9" ry="9" style="stroke:#000000;stroke-width:1;"/><path d="M352.0117,204.2406 Q351.4336,204.5375 350.793,204.6781 Q350.1523,204.8344 349.4492,204.8344 Q346.9492,204.8344 345.6211,203.1938 Q344.3086,201.5375 344.3086,198.4125 Q344.3086,195.2875 345.6211,193.6313 Q346.9492,191.975 349.4492,191.975 Q350.1523,191.975 350.793,192.1313 Q351.4492,192.2875 352.0117,192.5844 L352.0117,195.3031 Q351.3867,194.725 350.793,194.4594 Q350.1992,194.1781 349.5742,194.1781 Q348.2305,194.1781 347.543,195.2563 Q346.8555,196.3188 346.8555,198.4125 Q346.8555,200.5063 347.543,201.5844 Q348.2305,202.6469 349.5742,202.6469 Q350.1992,202.6469 350.793,202.3813 Q351.3867,202.1 352.0117,201.5219 L352.0117,204.2406 Z " fill="#000000"/><text fill="#000000" font-family="Verdana" font-size="14" lengthAdjust="spacing" textLength="94.4043" x="366.543" y="203.4467">SpaceService</text><line style="stroke:#000000;stroke-width:1;" x1="288.5" x2="511.4902" y1="212.6" y2="212.6"/><line style="stroke:#000000;stroke-width:1;" x1="288.5" x2="511.4902" y1="220.6" y2="220.6"/><g data-visibility-modifier="PUBLIC_METHOD"><ellipse cx="298.5" cy="234.2484" fill="#FFFFFF" rx="3" ry="3" style="stroke:#000000;stroke-width:1;"/></g><text fill="#000000" font-family="Verdana" font-size="14" lengthAdjust="spacing" textLength="180.8516" x="305.5" y="237.5951">saveSpace(Space): Space</text><g data-visibility-modifier="PUBLIC_METHOD"><ellipse cx="298.5" cy="250.5453" fill="#FFFFFF" rx="3" ry="3" style="stroke:#000000;stroke-width:1;"/></g><text fill="#000000" font-family="Verdana" font-size="14" lengthAdjust="spacing" textLength="200.9902" x="305.5" y="253.892">getAllSpaces(): List&lt;Space&gt;</text></g><!--class Space--><g class="entity" data-qualified-name="Inventory Service.Space" data-source-line="33" id="ent0011"><rect fill="#FFFFFF" height="109.1875" rx="2.5" ry="2.5" style="stroke:#000000;stroke-width:1;" width="148.0723" x="325.96" y="346.34"/><ellipse cx="374.9146" cy="360.34" fill="#FFFFFF" rx="9" ry="9" style="stroke:#000000;stroke-width:1;"/><path d="M377.8833,365.9806 Q377.3052,366.2775 376.6646,366.4181 Q376.024,366.5744 375.3208,366.5744 Q372.8208,366.5744 371.4927,364.9338 Q370.1802,363.2775 370.1802,360.1525 Q370.1802,357.0275 371.4927,355.3713 Q372.8208,353.715 375.3208,353.715 Q376.024,353.715 376.6646,353.8713 Q377.3208,354.0275 377.8833,354.3244 L377.8833,357.0431 Q377.2583,356.465 376.6646,356.1994 Q376.0708,355.9181 375.4458,355.9181 Q374.1021,355.9181 373.4146,356.9963 Q372.7271,358.0588 372.7271,360.1525 Q372.7271,362.2463 373.4146,363.3244 Q374.1021,364.3869 375.4458,364.3869 Q376.0708,364.3869 376.6646,364.1213 Q377.2583,363.84 377.8833,363.2619 L377.8833,365.9806 Z " fill="#000000"/><text fill="#000000" font-family="Verdana" font-size="14" lengthAdjust="spacing" textLength="42.6631" x="392.4146" y="365.1867">Space</text><line style="stroke:#000000;stroke-width:1;" x1="326.96" x2="473.0323" y1="374.34" y2="374.34"/><g data-visibility-modifier="PRIVATE_FIELD"><rect fill="none" height="6" style="stroke:#000000;stroke-width:1;" width="6" x="333.96" y="384.9884"/></g><text fill="#000000" font-family="Verdana" font-size="14" lengthAdjust="spacing" textLength="51.3516" x="343.96" y="391.3351">Long id</text><g data-visibility-modifier="PRIVATE_FIELD"><rect fill="none" height="6" style="stroke:#000000;stroke-width:1;" width="6" x="333.96" y="401.2853"/></g><text fill="#000000" font-family="Verdana" font-size="14" lengthAdjust="spacing" textLength="85.9346" x="343.96" y="407.632">String name</text><g data-visibility-modifier="PRIVATE_FIELD"><rect fill="none" height="6" style="stroke:#000000;stroke-width:1;" width="6" x="333.96" y="417.5822"/></g><text fill="#000000" font-family="Verdana" font-size="14" lengthAdjust="spacing" textLength="124.0723" x="343.96" y="423.9289">String description</text><g data-visibility-modifier="PRIVATE_FIELD"><rect fill="none" height="6" style="stroke:#000000;stroke-width:1;" width="6" x="333.96" y="433.8791"/></g><text fill="#000000" font-family="Verdana" font-size="14" lengthAdjust="spacing" textLength="113.9141" x="343.96" y="440.2257">Integer capacity</text><line style="stroke:#000000;stroke-width:1;" x1="326.96" x2="473.0323" y1="447.5275" y2="447.5275"/></g><!--class BookingController--><g class="entity" data-qualified-name="Booking Service.BookingController" data-source-line="45" id="ent0015"><rect fill="#FFFFFF" height="76.5938" rx="2.5" ry="2.5" style="stroke:#000000;stroke-width:1;" width="258.3154" x="567.84" y="47"/><ellipse cx="630.4152" cy="61" fill="#FFFFFF" rx="9" ry="9" style="stroke:#000000;stroke-width:1;"/><path d="M633.3839,66.6406 Q632.8058,66.9375 632.1652,67.0781 Q631.5246,67.2344 630.8214,67.2344 Q628.3214,67.2344 626.9933,65.5938 Q625.6808,63.9375 625.6808,60.8125 Q625.6808,57.6875 626.9933,56.0313 Q628.3214,54.375 630.8214,54.375 Q631.5246,54.375 632.1652,54.5313 Q632.8214,54.6875 633.3839,54.9844 L633.3839,57.7031 Q632.7589,57.125 632.1652,56.8594 Q631.5714,56.5781 630.9464,56.5781 Q629.6027,56.5781 628.9152,57.6563 Q628.2277,58.7188 628.2277,60.8125 Q628.2277,62.9063 628.9152,63.9844 Q629.6027,65.0469 630.9464,65.0469 Q631.5714,65.0469 632.1652,64.7813 Q632.7589,64.5 633.3839,63.9219 L633.3839,66.6406 Z " fill="#000000"/><text fill="#000000" font-family="Verdana" font-size="14" lengthAdjust="spacing" textLength="125.665" x="647.9152" y="65.8467">BookingController</text><line style="stroke:#000000;stroke-width:1;" x1="568.84" x2="825.1554" y1="75" y2="75"/><line style="stroke:#000000;stroke-width:1;" x1="568.84" x2="825.1554" y1="83" y2="83"/><g data-visibility-modifier="PUBLIC_METHOD"><ellipse cx="578.84" cy="96.6484" fill="#FFFFFF" rx="3" ry="3" style="stroke:#000000;stroke-width:1;"/></g><text fill="#000000" font-family="Verdana" font-size="14" lengthAdjust="spacing" textLength="234.3154" x="585.84" y="99.9951">createBooking(Booking): Booking</text><g data-visibility-modifier="PUBLIC_METHOD"><ellipse cx="578.84" cy="112.9453" fill="#FFFFFF" rx="3" ry="3" style="stroke:#000000;stroke-width:1;"/></g><text fill="#000000" font-family="Verdana" font-size="14" lengthAdjust="spacing" textLength="228.6484" x="585.84" y="116.292">getAllBookings(): List&lt;Booking&gt;</text></g><!--class BookingService--><g class="entity" data-qualified-name="Booking Service.BookingService" data-source-line="49" id="ent0016"><rect fill="#FFFFFF" height="76.5938" rx="2.5" ry="2.5" style="stroke:#000000;stroke-width:1;" width="258.3154" x="567.84" y="184.6"/><ellipse cx="639.131" cy="198.6" fill="#FFFFFF" rx="9" ry="9" style="stroke:#000000;stroke-width:1;"/><path d="M642.0998,204.2406 Q641.5216,204.5375 640.881,204.6781 Q640.2404,204.8344 639.5373,204.8344 Q637.0373,204.8344 635.7091,203.1938 Q634.3966,201.5375 634.3966,198.4125 Q634.3966,195.2875 635.7091,193.6313 Q637.0373,191.975 639.5373,191.975 Q640.2404,191.975 640.881,192.1313 Q641.5373,192.2875 642.0998,192.5844 L642.0998,195.3031 Q641.4748,194.725 640.881,194.4594 Q640.2873,194.1781 639.6623,194.1781 Q638.3185,194.1781 637.631,195.2563 Q636.9435,196.3188 636.9435,198.4125 Q636.9435,200.5063 637.631,201.5844 Q638.3185,202.6469 639.6623,202.6469 Q640.2873,202.6469 640.881,202.3813 Q641.4748,202.1 642.0998,201.5219 L642.0998,204.2406 Z " fill="#000000"/><text fill="#000000" font-family="Verdana" font-size="14" lengthAdjust="spacing" textLength="108.2334" x="656.631" y="203.4467">BookingService</text><line style="stroke:#000000;stroke-width:1;" x1="568.84" x2="825.1554" y1="212.6" y2="212.6"/><line style="stroke:#000000;stroke-width:1;" x1="568.84" x2="825.1554" y1="220.6" y2="220.6"/><g data-visibility-modifier="PUBLIC_METHOD"><ellipse cx="578.84" cy="234.2484" fill="#FFFFFF" rx="3" ry="3" style="stroke:#000000;stroke-width:1;"/></g><text fill="#000000" font-family="Verdana" font-size="14" lengthAdjust="spacing" textLength="234.3154" x="585.84" y="237.5951">createBooking(Booking): Booking</text><g data-visibility-modifier="PUBLIC_METHOD"><ellipse cx="578.84" cy="250.5453" fill="#FFFFFF" rx="3" ry="3" style="stroke:#000000;stroke-width:1;"/></g><text fill="#000000" font-family="Verdana" font-size="14" lengthAdjust="spacing" textLength="228.6484" x="585.84" y="253.892">getAllBookings(): List&lt;Booking&gt;</text></g><!--class Booking--><g class="entity" data-qualified-name="Booking Service.Booking" data-source-line="53" id="ent0017"><rect fill="#FFFFFF" height="125.4844" rx="2.5" ry="2.5" style="stroke:#000000;stroke-width:1;" width="130.0117" x="599.99" y="338.19"/><ellipse cx="633.4738" cy="352.19" fill="#FFFFFF" rx="9" ry="9" style="stroke:#000000;stroke-width:1;"/><path d="M636.4425,357.8306 Q635.8644,358.1275 635.2238,358.2681 Q634.5832,358.4244 633.88,358.4244 Q631.38,358.4244 630.0519,356.7838 Q628.7394,355.1275 628.7394,352.0025 Q628.7394,348.8775 630.0519,347.2213 Q631.38,345.565 633.88,345.565 Q634.5832,345.565 635.2238,345.7213 Q635.88,345.8775 636.4425,346.1744 L636.4425,348.8931 Q635.8175,348.315 635.2238,348.0494 Q634.63,347.7681 634.005,347.7681 Q632.6613,347.7681 631.9738,348.8463 Q631.2863,349.9088 631.2863,352.0025 Q631.2863,354.0963 631.9738,355.1744 Q632.6613,356.2369 634.005,356.2369 Q634.63,356.2369 635.2238,355.9713 Q635.8175,355.69 636.4425,355.1119 L636.4425,357.8306 Z " fill="#000000"/><text fill="#000000" font-family="Verdana" font-size="14" lengthAdjust="spacing" textLength="56.4922" x="650.0257" y="357.0367">Booking</text><line style="stroke:#000000;stroke-width:1;" x1="600.99" x2="729.0017" y1="366.19" y2="366.19"/><g data-visibility-modifier="PRIVATE_FIELD"><rect fill="none" height="6" style="stroke:#000000;stroke-width:1;" width="6" x="607.99" y="376.8384"/></g><text fill="#000000" font-family="Verdana" font-size="14" lengthAdjust="spacing" textLength="51.3516" x="617.99" y="383.1851">Long id</text><g data-visibility-modifier="PRIVATE_FIELD"><rect fill="none" height="6" style="stroke:#000000;stroke-width:1;" width="6" x="607.99" y="393.1353"/></g><text fill="#000000" font-family="Verdana" font-size="14" lengthAdjust="spacing" textLength="82.127" x="617.99" y="399.482">Long userId</text><g data-visibility-modifier="PRIVATE_FIELD"><rect fill="none" height="6" style="stroke:#000000;stroke-width:1;" width="6" x="607.99" y="409.4322"/></g><text fill="#000000" font-family="Verdana" font-size="14" lengthAdjust="spacing" textLength="92.6611" x="617.99" y="415.7789">Long spaceId</text><g data-visibility-modifier="PRIVATE_FIELD"><rect fill="none" height="6" style="stroke:#000000;stroke-width:1;" width="6" x="607.99" y="425.7291"/></g><text fill="#000000" font-family="Verdana" font-size="14" lengthAdjust="spacing" textLength="106.0117" x="617.99" y="432.0757">LocalDate date</text><g data-visibility-modifier="PRIVATE_FIELD"><rect fill="none" height="6" style="stroke:#000000;stroke-width:1;" width="6" x="607.99" y="442.0259"/></g><text fill="#000000" font-family="Verdana" font-size="14" lengthAdjust="spacing" textLength="89.25" x="617.99" y="448.3726">String status</text><line style="stroke:#000000;stroke-width:1;" x1="600.99" x2="729.0017" y1="455.6744" y2="455.6744"/></g><g class="entity" data-qualified-name="N1" data-source-line="65" id="ent0020"><path d="M294.87,526.67 L294.87,566.9356 L505.1317,566.9356 L505.1317,536.67 L495.1317,526.67 L294.87,526.67" fill="#FFFFFF" style="stroke:#000000;stroke-width:1;"/><path d="M495.1317,526.67 L495.1317,536.67 L505.1317,536.67 L495.1317,526.67" fill="#FFFFFF" style="stroke:#000000;stroke-width:1;"/><text fill="#000000" font-family="Verdana" font-size="13" lengthAdjust="spacing" textLength="189.2617" x="300.87" y="543.7369">Cada servicio tiene su propia</text><text fill="#000000" font-family="Verdana" font-size="13" lengthAdjust="spacing" textLength="166.4292" x="300.87" y="558.8697">Base de Datos H2 aislada</text></g><!--link UserController to UserService--><g class="link" data-entity-1="ent0003" data-entity-2="ent0004" data-link-type="dependency" data-source-line="20" id="lnk6"><path codeLine="20" d="M130,124.07 C130,142.88 130,159.55 130,178.33" fill="none" id="UserController-to-UserService" style="stroke:#000000;stroke-width:1;"/><polygon fill="#000000" points="130,184.33,134,175.33,130,179.33,126,175.33,130,184.33" style="stroke:#000000;stroke-width:1;"/></g><!--link UserService to User--><g class="link" data-entity-1="ent0004" data-entity-2="ent0005" data-link-type="dependency" data-source-line="21" id="lnk7"><path codeLine="21" d="M133.65,261.66 C136.02,286.21 138.5738,312.6277 141.2038,339.8877" fill="none" id="UserService-to-User" style="stroke:#000000;stroke-width:1;stroke-dasharray:7,7;"/><polygon fill="#000000" points="141.78,345.86,144.8972,336.5175,141.2998,340.8831,136.9342,337.2857,141.78,345.86" style="stroke:#000000;stroke-width:1;"/><text fill="#000000" font-family="Verdana" font-size="13" lengthAdjust="spacing" textLength="22.9785" x="138" y="304.2569">usa</text></g><!--link SpaceController to SpaceService--><g class="link" data-entity-1="ent0009" data-entity-2="ent0010" data-link-type="dependency" data-source-line="40" id="lnk12"><path codeLine="40" d="M400,124.07 C400,142.88 400,159.55 400,178.33" fill="none" id="SpaceController-to-SpaceService" style="stroke:#000000;stroke-width:1;"/><polygon fill="#000000" points="400,184.33,404,175.33,400,179.33,396,175.33,400,184.33" style="stroke:#000000;stroke-width:1;"/></g><!--link SpaceService to Space--><g class="link" data-entity-1="ent0010" data-entity-2="ent0011" data-link-type="dependency" data-source-line="41" id="lnk13"><path codeLine="41" d="M400,261.66 C400,286.21 400,312.6 400,339.86" fill="none" id="SpaceService-to-Space" style="stroke:#000000;stroke-width:1;stroke-dasharray:7,7;"/><polygon fill="#000000" points="400,345.86,404,336.86,400,340.86,396,336.86,400,345.86" style="stroke:#000000;stroke-width:1;"/><text fill="#000000" font-family="Verdana" font-size="13" lengthAdjust="spacing" textLength="22.9785" x="401" y="304.2569">usa</text></g><!--link BookingController to BookingService--><g class="link" data-entity-1="ent0015" data-entity-2="ent0016" data-link-type="dependency" data-source-line="61" id="lnk18"><path codeLine="61" d="M697,124.07 C697,142.88 697,159.55 697,178.33" fill="none" id="BookingController-to-BookingService" style="stroke:#000000;stroke-width:1;"/><polygon fill="#000000" points="697,184.33,701,175.33,697,179.33,693,175.33,697,184.33" style="stroke:#000000;stroke-width:1;"/></g><!--link BookingService to Booking--><g class="link" data-entity-1="ent0016" data-entity-2="ent0017" data-link-type="dependency" data-source-line="62" id="lnk19"><path codeLine="62" d="M690.14,261.66 C686.09,283.88 681.9635,306.6368 677.3335,332.0968" fill="none" id="BookingService-to-Booking" style="stroke:#000000;stroke-width:1;stroke-dasharray:7,7;"/><polygon fill="#000000" points="676.26,338,681.8057,329.8609,677.1546,333.0807,673.9348,328.4295,676.26,338" style="stroke:#000000;stroke-width:1;"/><text fill="#000000" font-family="Verdana" font-size="13" lengthAdjust="spacing" textLength="22.9785" x="684" y="304.2569">usa</text></g><!--link User to N1--><g class="link" data-entity-1="ent0005" data-entity-2="ent0020" data-link-type="association" data-source-line="66" id="lnk21"><path codeLine="66" d="M216.68,452.89 C234.34,464.92 253.55,477.26 272,487.67 C297.51,502.07 327.23,515.74 351.6,526.21" fill="none" id="User-N1" style="stroke:#000000;stroke-width:1;stroke-dasharray:7,7;"/></g><!--link Space to N1--><g class="link" data-entity-1="ent0011" data-entity-2="ent0020" data-link-type="association" data-source-line="67" id="lnk22"><path codeLine="67" d="M400,455.92 C400,480.63 400,508.37 400,526.41" fill="none" id="Space-N1" style="stroke:#000000;stroke-width:1;stroke-dasharray:7,7;"/></g><!--link Booking to N1--><g class="link" data-entity-1="ent0017" data-entity-2="ent0020" data-link-type="association" data-source-line="68" id="lnk23"><path codeLine="68" d="M599.51,445.39 C577.19,459.53 551.86,474.87 528,487.67 C501.77,501.76 471.47,515.62 446.93,526.28" fill="none" id="Booking-N1" style="stroke:#000000;stroke-width:1;stroke-dasharray:7,7;"/></g><!--SRC=[jLExRW8n4EplApPKH158IOaYf3oA824Qb2xDwjXSB8nzyXea5F7lMVjCC9WyYkGAFsRdFEkPkml_HYk2LgCo5I-LQT7X2bgibzZGt6yrWQFQesaqLLN2eVVCv61ERgDgwi5x1VBK6faXL1wiySvgBPok59uhg1sXfq3eX-5o5CaPeI5_ftK0kI_LgM9_6tRZoDcTg2Jv8md6pTy9P2SFO6fD0sgH8NFlb62loh6VuOhAafpqHOLMg7Gc6eSJwmQ3SNxFJyh-tiDXLuSHh1chNHRFn6p8UEksvpEQ2v6-3Iao-d4Kd-9Ss1ZHWuznMnePuQ-Y-cEPtmLcpYQo8AwTQhso9YjEZAT67AfHpbT-ctJZTEfYo2k_xO6K9zOrMaPsR-qoz74si5JyDhB4wQTP_4ghmj647pnDGEbgAfoBxzz5VmWp8clv_2S5oi7Y4xX6_IZzmaA6CdpswDUSXriw7k8zzYCdvX7lB_0Pih6Yt7l01G97dhBW5Ha2NaFhRAlmnTmZIti4qgPbUBe1LApbbHuWm-owYh_wS1YMtJVKhVTYSVS1]--></g></svg>